{
  "accessors": [
    {
      "bufferView": 2,
      "componentType": 5126,
      "count": 144,
      "max": [
        0.6574699878692627,
        0.0703120082616806,
        2.0499560832977295
      ],
      "min": [
        0.0,
        0.0,
        0.0
      ],
      "type": "VEC3"
    },
    {
      "bufferView": 2,
      "byteOffset": 1728,
      "componentType": 5126,
      "count": 144,
      "max": [
        0.8173529505729675,
        1.0,
        0.904534101486206
      ],
      "min": [
        -0.8173529505729675,
        -1.0,
        -0.904534101486206
      ],
      "type": "VEC3"
    },
    {
      "bufferView": 3,
      "componentType": 5126,
      "count": 144,
      "max": [
        1.0,
        0.9534602165222168,
        1.0,
        1.0
      ],
      "min": [
        -1.0,
        -0.9531876444816589,
        -1.0,
        1.0
      ],
      "type": "VEC4"
    },
    {
      "bufferView": 1,
      "componentType": 5126,
      "count": 144,
      "max": [
        0.9991000294685364,
        0.6256999969482422
      ],
      "min": [
        0.0008999999845400453,
        0.0008999999845400453
      ],
      "type": "VEC2"
    },
    {
      "bufferView": 0,
      "componentType": 5125,
      "count": 300,
      "type": "SCALAR"
    }
  ],
  "asset": {
    "extras": {
      "author": "Sardaukar (https://sketchfab.com/C.Paradise)",
      "license": "CC-BY-4.0 (http://creativecommons.org/licenses/by/4.0/)",
      "source": "https://sketchfab.com/3d-models/stop-sign-ts-a3963ab8133b45cab4e60da94d255ac3",
      "title": "Stop-sign-ts"
    },
    "generator": "Sketchfab-12.68.0",
    "version": "2.0"
  },
  "bufferViews": [
    {
      "buffer": 0,
      "byteLength": 1200,
      "name": "floatBufferViews",
      "target": 34963
    },
    {
      "buffer": 0,
      "byteLength": 1152,
      "byteOffset": 1200,
      "byteStride": 8,
      "name": "floatBufferViews",
      "target": 34962
    },
    {
      "buffer": 0,
      "byteLength": 3456,
      "byteOffset": 2352,
      "byteStride": 12,
      "name": "floatBufferViews",
      "target": 34962
    },
    {
      "buffer": 0,
      "byteLength": 2304,
      "byteOffset": 5808,
      "byteStride": 16,
      "name": "floatBufferViews",
      "target": 34962
    }
  ],
  "buffers": [
    {
      "byteLength": 8112,
      "uri": "scene.bin"
    }
  ],
  "images": [
    {
      "uri": "textures/material_0_baseColor.png"
    },
    {
      "uri": "textures/material_0_metallicRoughness.png"
    },
    {
      "uri": "textures/material_0_normal.png"
    }
  ],
  "materials": [
    {
      "doubleSided": true,
      "name": "material_0",
      "normalTexture": {
        "index": 2
      },
      "pbrMetallicRoughness": {
        "baseColorTexture": {
          "index": 0
        },
        "metallicRoughnessTexture": {
          "index": 1
        }
      }
    }
  ],
  "meshes": [
    {
      "name": "Object_0",
      "primitives": [
        {
          "attributes": {
            "NORMAL": 1,
            "POSITION": 0,
            "TANGENT": 2,
            "TEXCOORD_0": 3
          },
          "indices": 4,
          "material": 0,
          "mode": 4
        }
      ]
    }
  ],
  "nodes": [
    {
      "children": [
        1
      ],
      "matrix": [
        -1.0,
        -6.290011496532519e-32,
        2.832769343193999e-16,
        0.0,
        2.832769343193999e-16,
        -2.220446049250313e-16,
        1.0,
        0.0,
        0.0,
        1.0,
        2.220446049250313e-16,
        0.0,
        -1.9094467518243619e-07,
        5.4023450355968956e-17,
        -0.24329999089241028,
        1.0
      ],
      "name": "Sketchfab_model"
    },
    {
      "children": [
        2
      ],
      "matrix": [
        1.0,
        0.0,
        0.0,
        0.0,
        0.0,
        1.0,
        0.0,
        0.0,
        0.0,
        0.0,
        1.0,
        0.0,
        -0.32873499393463135,
        0.08649399876594543,
        0.0,
        1.0
      ],
      "name": "stop-sign-ts.obj.cleaner.gles"
    },
    {
      "children": [
        3
      ],
      "name": "Object_2"
    },
    {
      "mesh": 0,
      "name": "Object_3"
    }
  ],
  "samplers": [
    {
      "magFilter": 9729,
      "minFilter": 9987,
      "wrapS": 10497,
      "wrapT": 10497
    }
  ],
  "scene": 0,
  "scenes": [
    {
      "name": "Sketchfab_Scene",
      "nodes": [
        0
      ]
    }
  ],
  "textures": [
    {
      "sampler": 0,
      "source": 0
    },
    {
      "sampler": 0,
      "source": 1
    },
    {
      "sampler": 0,
      "source": 2
    }
  ]
}
