{
  "accessors": [
    {
      "bufferView": 2,
      "componentType": 5126,
      "count": 11089,
      "max": [
        0.2099796086549759,
        0.2099796086549759,
        0.2493087500333786
      ],
      "min": [
        -0.2099796086549759,
        -0.2099796086549759,
        -0.2695193290710449
      ],
      "type": "VEC3"
    },
    {
      "bufferView": 2,
      "byteOffset": 133068,
      "componentType": 5126,
      "count": 11089,
      "max": [
        1.0,
        1.0,
        1.0
      ],
      "min": [
        -1.0,
        -1.0,
        -1.0
      ],
      "type": "VEC3"
    },
    {
      "bufferView": 1,
      "componentType": 5126,
      "count": 11089,
      "max": [
        0.794103741645813,
        0.9998215436935425
      ],
      "min": [
        0.0001785983331501484,
        0.0001785983331501484
      ],
      "type": "VEC2"
    },
    {
      "bufferView": 0,
      "componentType": 5125,
      "count": 25440,
      "type": "SCALAR"
    }
  ],
  "asset": {
    "extras": {
      "author": "hinndia (https://sketchfab.com/hinndia)",
      "license": "CC-BY-4.0 (http://creativecommons.org/licenses/by/4.0/)",
      "source": "https://sketchfab.com/3d-models/traffic-cone-573feef839d7450cb3e12da9986e7a98",
      "title": "Traffic Cone"
    },
    "generator": "Sketchfab-14.79.0",
    "version": "2.0"
  },
  "bufferViews": [
    {
      "buffer": 0,
      "byteLength": 101760,
      "name": "floatBufferViews",
      "target": 34963
    },
    {
      "buffer": 0,
      "byteLength": 88712,
      "byteOffset": 101760,
      "byteStride": 8,
      "name": "floatBufferViews",
      "target": 34962
    },
    {
      "buffer": 0,
      "byteLength": 266136,
      "byteOffset": 190472,
      "byteStride": 12,
      "name": "floatBufferViews",
      "target": 34962
    }
  ],
  "buffers": [
    {
      "byteLength": 456608,
      "uri": "scene.bin"
    }
  ],
  "images": [
    {
      "uri": "textures/ConeBaseMat_baseColor.png"
    },
    {
      "uri": "textures/ConeBaseMat_metallicRoughness.png"
    }
  ],
  "materials": [
    {
      "doubleSided": true,
      "name": "ConeBaseMat",
      "occlusionTexture": {
        "index": 1
      },
      "pbrMetallicRoughness": {
        "baseColorTexture": {
          "index": 0
        },
        "metallicFactor": 0.0,
        "metallicRoughnessTexture": {
          "index": 1
        },
        "roughnessFactor": 0.35
      }
    }
  ],
  "meshes": [
    {
      "name": "Cone.001_ConeBaseMat_0",
      "primitives": [
        {
          "attributes": {
            "NORMAL": 1,
            "POSITION": 0,
            "TEXCOORD_0": 2
          },
          "indices": 3,
          "material": 0,
          "mode": 4
        }
      ]
    }
  ],
  "nodes": [
    {
      "children": [
        1
      ],
      "matrix": [
        1.0,
        0.0,
        0.0,
        0.0,
        0.0,
        2.220446049250313e-16,
        -1.0,
        0.0,
        0.0,
        1.0,
        2.220446049250313e-16,
        0.0,
        0.0,
        0.0,
        0.0,
        1.0
      ],
      "name": "Sketchfab_model"
    },
    {
      "children": [
        2
      ],
      "matrix": [
        0.009999999776482582,
        0.0,
        0.0,
        0.0,
        0.0,
        0.0,
        0.009999999776482582,
        0.0,
        0.0,
        -0.009999999776482582,
        0.0,
        0.0,
        0.0,
        0.0,
        0.0,
        1.0
      ],
      "name": "224bad2cddb044b598dff0929b2d802e.fbx"
    },
    {
      "children": [
        3
      ],
      "name": "RootNode"
    },
    {
      "children": [
        4
      ],
      "matrix": [
        100.0,
        0.0,
        0.0,
        0.0,
        0.0,
        -1.629206793918314e-05,
        -99.99999999999868,
        0.0,
        0.0,
        99.99999999999868,
        -1.629206793918314e-05,
        0.0,
        0.0,
        26.749345779418945,
        0.0,
        1.0
      ],
      "name": "Cone.001"
    },
    {
      "mesh": 0,
      "name": "Cone.001_ConeBaseMat_0"
    }
  ],
  "samplers": [
    {
      "magFilter": 9729,
      "minFilter": 9987,
      "wrapS": 10497,
      "wrapT": 10497
    }
  ],
  "scene": 0,
  "scenes": [
    {
      "name": "Sketchfab_Scene",
      "nodes": [
        0
      ]
    }
  ],
  "textures": [
    {
      "sampler": 0,
      "source": 0
    },
    {
      "sampler": 0,
      "source": 1
    }
  ]
}
